<?xml version="1.0" standalone="no"?>
<!DOCTYPE svg PUBLIC "-//W3C//DTD SVG 20010904//EN"
 "http://www.w3.org/TR/2001/REC-SVG-20010904/DTD/svg10.dtd">
<svg version="1.0" xmlns="http://www.w3.org/2000/svg"
 width="1262.000000pt" height="396.000000pt" viewBox="0 0 1262.000000 396.000000"
 preserveAspectRatio="xMidYMid meet">
<metadata>
Created by potrace 1.16, written by Peter Selinger 2001-2019
</metadata>
<g transform="translate(0.000000,396.000000) scale(0.100000,-0.100000)"
fill="#000000" stroke="none">
<path d="M11124 3940 c-61 -39 -88 -114 -195 -527 -186 -720 -209 -806 -221
-820 -9 -12 -13 -12 -19 -1 -4 7 -23 119 -43 248 -20 129 -39 243 -42 252 -8
25 -53 58 -80 58 -40 0 -70 -40 -180 -245 -59 -110 -114 -208 -122 -217 -14
-16 -41 -18 -299 -18 -346 0 -353 -2 -353 -101 0 -26 7 -46 20 -59 19 -19 33
-20 358 -20 l338 0 35 38 c20 20 50 60 67 88 18 28 41 59 51 68 19 17 20 17
34 -6 9 -13 34 -153 60 -337 42 -290 48 -316 71 -339 17 -17 39 -26 73 -29 81
-8 48 -109 332 1001 66 257 126 475 132 482 21 25 37 -3 48 -89 10 -69 106
-1101 127 -1352 8 -101 32 -158 74 -180 65 -34 126 -1 173 93 14 29 78 148
142 266 86 159 122 215 138 220 12 3 171 6 354 6 l332 0 27 23 c21 19 27 33
28 67 1 39 -2 45 -34 64 -33 20 -52 21 -370 24 -184 2 -358 1 -387 -3 -90 -11
-108 -30 -207 -225 -70 -138 -91 -170 -97 -155 -4 11 -35 340 -69 730 -34 391
-68 744 -77 785 -36 180 -130 269 -219 210z"/>
</g>
</svg>
