<svg width="398" height="72" viewBox="0 0 398 72" fill="none" xmlns="http://www.w3.org/2000/svg">
<path d="M304.7 40.9615C304.7 40.9615 302.096 41.152 302.096 43.5791C302.096 46.0062 303.921 46.4084 304.588 46.4084H313.666H323.734C323.734 46.4084 325.271 46.5354 327.42 42.7748C327.925 41.8576 327.981 41.9352 328.529 40.9827C329.091 40.0161 330.684 38.5697 331.148 41.2578C331.52 43.3322 332.931 53.2805 332.931 53.2805L333.998 60.5265C333.998 60.5265 334.644 62.5585 336.806 62.5585C338.969 62.5585 339.067 63.0595 340.113 59.1507C341.138 55.2419 345.751 37.1092 345.751 37.1092L350.413 18.9412C350.413 18.9412 350.96 15.4628 352.07 15.4628C353.165 15.4628 353.165 17.5301 353.397 18.8918C353.614 20.2535 357.553 63.8779 357.553 63.8779C357.553 63.8779 358.171 67.3281 360.993 67.3281C363.815 67.3281 364.904 63.6945 364.904 63.6945L372.514 49.6963C372.514 49.6963 372.718 48.4968 374.761 48.4968H394.833C394.833 48.4968 397.206 47.9818 397.206 45.4136C397.206 43.6144 394.286 43.0499 390.86 43.0499H374.129C374.129 43.0499 369.58 43.0499 368.435 45.2654C366.188 49.7104 362.496 56.7377 362.496 56.7377L358.395 10.4745C358.395 10.4745 357.658 0.265137 352.716 0.265137C348.7 0.265137 347.008 10.1358 347.008 10.1358L338.618 42.4291C338.618 42.4291 337.452 45.8087 336.835 41.9987C336.434 39.5786 334.834 28.8048 334.834 28.8048C334.834 28.8048 334.644 25.9685 332.362 25.8203C330.074 25.6863 329.224 29.1505 328.838 29.5386C328.438 29.9337 323.172 39.9314 323.172 39.9314C323.172 39.9314 322.681 40.9686 321.059 40.9686C319.458 41.0109 304.7 40.9615 304.7 40.9615Z" fill="white"/>
<path d="M0.890625 67.2786V13.8822C0.890625 13.0638 1.22762 12.3088 1.76822 11.7585C2.30882 11.2082 3.06005 10.8765 3.8885 10.8765H29.5074C33.1371 10.8765 36.2613 11.2505 38.8731 11.9843C41.6182 12.7674 43.8227 13.9598 45.4586 15.5755C47.0874 17.1913 48.309 19.3714 49.1024 22.1019C49.8536 24.6984 50.2327 27.8099 50.2327 31.4011V49.6891C50.2327 53.2945 49.8536 56.413 49.0953 59.0165C48.288 61.7682 47.0663 63.9554 45.4235 65.5711C43.7876 67.1868 41.5901 68.3863 38.845 69.1836C36.2403 69.9244 33.1231 70.2913 29.5003 70.2913H3.8885C3.06005 70.2913 2.30882 69.9526 1.76822 69.4023C1.22762 68.8661 0.890625 68.1182 0.890625 67.2786ZM10.8812 60.9004H28.5104C31.0098 60.9004 33.0669 60.6816 34.6887 60.2654C36.1209 59.8985 37.167 59.4046 37.82 58.7484C38.4729 58.0922 38.9784 57.0762 39.3364 55.6863C39.7437 54.1341 39.9402 52.1585 39.9402 49.7667V31.8456C39.9402 29.3197 39.7366 27.2454 39.3294 25.6085C38.9643 24.1551 38.4659 23.0967 37.82 22.4547C37.1881 21.8056 36.149 21.3046 34.7168 20.9378C33.095 20.5285 31.0238 20.3239 28.5104 20.3239H10.8812V60.9004ZM54.0099 67.2786V13.8822C54.0099 13.0567 54.3469 12.3018 54.8875 11.7585H54.9015C55.4421 11.2082 56.1934 10.8765 57.0078 10.8765H61.0798C61.8942 10.8765 62.6455 11.2082 63.1861 11.7585H63.1931C63.7337 12.3018 64.0707 13.0567 64.0707 13.8822V67.2786C64.0707 68.1041 63.7407 68.8661 63.1931 69.3952C62.6455 69.9597 61.8942 70.2983 61.0798 70.2983H57.0078C56.1793 70.2983 55.4351 69.9597 54.8875 69.4093V69.3952C54.3539 68.8661 54.0099 68.1041 54.0099 67.2786ZM67.56 31.1683C67.56 27.45 67.9532 24.2609 68.7325 21.601C69.5609 18.7999 70.8317 16.5704 72.5448 14.9335C74.2438 13.3037 76.5396 12.1042 79.4392 11.321C82.1983 10.5732 85.5051 10.1992 89.3806 10.1992H96.4014C99.9329 10.1992 103.029 10.5026 105.683 11.1164C108.435 11.7585 110.731 12.7322 112.563 14.0515C114.466 15.4133 115.898 17.163 116.839 19.3009C117.759 21.3823 118.222 23.7811 118.222 26.5116V27.7957C118.222 28.6212 117.885 29.3832 117.344 29.9336V29.9265C116.797 30.4768 116.046 30.8155 115.224 30.8155H111.012C110.197 30.8155 109.453 30.4839 108.912 29.9406L108.905 29.9336C108.372 29.4044 108.035 28.6636 108.021 27.8522C107.993 26.2717 107.782 24.9453 107.375 23.8799C107.024 22.9486 106.532 22.236 105.894 21.735C105.163 21.1706 104.026 20.7261 102.488 20.4086C100.796 20.0699 98.648 19.9006 96.0293 19.9006H91.1639C89.3104 19.9006 87.7378 19.9429 86.4529 20.0488C85.1962 20.1475 84.2063 20.2816 83.4761 20.4721C82.7881 20.6414 82.1562 20.8743 81.5735 21.1706C81.0048 21.4599 80.4923 21.7915 80.043 22.1654V22.1725C79.6709 22.497 79.3409 22.8851 79.0741 23.3366C78.7933 23.7882 78.5686 24.3174 78.4071 24.903V24.91C78.2246 25.5521 78.0912 26.5046 77.9859 27.7605C77.8876 29.0728 77.8314 30.7097 77.8314 32.6852V48.4897C77.8314 50.4511 77.8876 52.095 77.9859 53.4003C78.0842 54.6421 78.2246 55.6087 78.4071 56.2437C78.5686 56.8364 78.7933 57.3514 79.0741 57.81C79.3409 58.2545 79.6568 58.6355 80.0149 58.9671C80.4923 59.3693 81.0048 59.7009 81.5735 59.9902C82.1562 60.2936 82.7741 60.5264 83.42 60.6887H83.434C84.115 60.8721 85.0839 61.0132 86.3406 61.1191C87.6395 61.2179 89.2472 61.2743 91.1639 61.2743H96.0293C97.7564 61.2743 99.2027 61.2249 100.368 61.1332C101.498 61.0344 102.376 60.9145 103.001 60.7663H103.008C103.591 60.6111 104.131 60.4135 104.637 60.1595C105.135 59.9126 105.592 59.6092 105.999 59.2705L106.083 59.1929C106.371 58.9389 106.624 58.6214 106.848 58.2545C107.108 57.81 107.312 57.3161 107.48 56.7588C107.642 56.1449 107.768 55.2841 107.859 54.1411C107.958 52.9558 108.007 51.4953 108.007 49.7596V45.1806H95.7063C94.8919 45.1806 94.1407 44.849 93.6001 44.2987L93.5931 44.2845C93.0455 43.7413 92.7155 42.9863 92.7155 42.1749V38.6472C92.7155 37.8358 93.0525 37.0738 93.5931 36.5305L93.6001 36.5235C94.1477 35.9731 94.8919 35.6415 95.7063 35.6415H115.231C116.053 35.6415 116.804 35.9731 117.351 36.5235C117.899 37.0738 118.236 37.8217 118.236 38.6472V49.9713C118.236 53.7108 117.843 56.9069 117.057 59.5669C116.228 62.375 114.957 64.6045 113.237 66.2273C111.545 67.8571 109.242 69.0566 106.35 69.8327C103.598 70.5806 100.284 70.9474 96.4084 70.9474H89.3876C85.5192 70.9474 82.2054 70.5806 79.4462 69.8327C76.5466 69.0636 74.2508 67.8642 72.5588 66.2273C70.8387 64.6045 69.568 62.375 68.7395 59.5669C67.9532 56.9069 67.56 53.7108 67.56 49.9713V31.1683ZM121.564 67.2786V13.8822C121.564 13.0567 121.908 12.3018 122.463 11.7514C123.01 11.2082 123.754 10.8765 124.569 10.8765H128.634C129.455 10.8765 130.199 11.2082 130.74 11.7585H130.747C131.288 12.3018 131.625 13.0567 131.625 13.8822V67.2786C131.625 68.1041 131.288 68.8661 130.747 69.4093C130.199 69.9597 129.455 70.2983 128.627 70.2983H124.562C123.747 70.2983 123.003 69.9597 122.456 69.4093C121.908 68.8661 121.564 68.1041 121.564 67.2786ZM135.5 31.1824C135.5 27.4712 135.865 24.2821 136.595 21.6292C137.361 18.8211 138.54 16.6056 140.12 14.9829C141.714 13.3389 143.869 12.1254 146.586 11.3281C149.17 10.5873 152.259 10.1992 155.846 10.1992H162.306C165.858 10.1992 168.905 10.5167 171.454 11.1588C174.136 11.8361 176.277 12.8733 177.892 14.2773H177.899C179.535 15.7096 180.749 17.6075 181.549 19.9853H181.557C182.308 22.2289 182.687 24.8889 182.687 27.9651V29.355C182.687 30.1805 182.35 30.9213 181.809 31.4717C181.262 32.022 180.517 32.3607 179.696 32.3607H175.484C174.669 32.3607 173.911 32.0291 173.37 31.4787C172.823 30.9284 172.486 30.1805 172.486 29.355V28.8682C172.486 26.9491 172.303 25.3686 171.931 24.1198C171.615 23.0332 171.159 22.2219 170.583 21.7068C169.979 21.1706 169.003 20.7402 167.655 20.4298C166.146 20.084 164.208 19.9076 161.863 19.9076H157.609C155.98 19.9076 154.59 19.95 153.438 20.0488C152.336 20.1405 151.465 20.2745 150.812 20.4509V20.4439C150.223 20.6061 149.661 20.8319 149.149 21.1141C148.671 21.3752 148.243 21.6856 147.864 22.0455L147.843 22.0666C147.478 22.3982 147.169 22.7934 146.909 23.2379C146.635 23.7035 146.424 24.2468 146.256 24.8536C146.088 25.4956 145.954 26.4552 145.863 27.7111C145.765 29.0375 145.715 30.7026 145.715 32.7135V48.5108C145.715 50.5005 145.765 52.1656 145.863 53.4709C145.961 54.7338 146.088 55.6863 146.263 56.3425C146.417 56.921 146.642 57.4502 146.916 57.93C147.176 58.3815 147.492 58.7766 147.857 59.1153L147.871 59.1294C148.257 59.5104 148.685 59.8138 149.156 60.089C149.64 60.35 150.167 60.5687 150.735 60.7451C151.332 60.9074 152.182 61.0344 153.305 61.1261C154.477 61.2249 155.91 61.2814 157.623 61.2814H161.877C164.285 61.2814 166.258 61.0979 167.803 60.731C169.151 60.4135 170.127 59.969 170.709 59.4046C171.292 58.8401 171.741 57.9441 172.064 56.7588C172.43 55.3829 172.619 53.6543 172.619 51.5235V50.6839C172.619 50.4934 172.605 50.2747 172.598 50.063V50.0348C172.584 49.6044 172.64 49.1952 172.795 48.8283C172.942 48.4614 173.153 48.1439 173.419 47.8547C173.721 47.5372 174.065 47.2902 174.444 47.135C174.81 46.9868 175.182 46.9233 175.575 46.9233H179.703C180.524 46.9233 181.269 47.262 181.816 47.8053C182.357 48.3415 182.694 49.1035 182.694 49.9219V52.5254C182.694 55.7921 182.329 58.6073 181.606 60.9497C180.84 63.4333 179.661 65.4089 178.06 66.8341C176.488 68.2734 174.346 69.3247 171.622 70.002C169.053 70.637 165.949 70.9616 162.32 70.9616H155.86C152.266 70.9616 149.184 70.5947 146.6 69.8327C143.876 69.0425 141.728 67.8289 140.134 66.1779C138.547 64.5622 137.375 62.3538 136.609 59.5527C135.879 56.8999 135.514 53.7108 135.514 49.9995V31.1824H135.5ZM212.16 19.9076H208.769C206.866 19.9076 205.259 19.95 203.953 20.0558C202.668 20.1546 201.685 20.2886 201.011 20.4721C200.351 20.6414 199.733 20.8743 199.158 21.1706C198.603 21.4528 198.09 21.7985 197.606 22.2007C197.227 22.5252 196.911 22.9133 196.637 23.3578C196.349 23.8446 196.118 24.4091 195.942 25.03C195.767 25.7002 195.626 26.6739 195.514 27.951C195.409 29.2562 195.359 30.8649 195.359 32.777V48.5108C195.359 50.4017 195.416 51.9963 195.514 53.2874C195.619 54.5363 195.76 55.4958 195.942 56.159C196.125 56.787 196.356 57.3514 196.63 57.803C196.897 58.2475 197.22 58.6426 197.606 58.9742C198.076 59.3764 198.603 59.708 199.165 59.9972C199.74 60.3006 200.358 60.5335 201.011 60.6957H201.018C201.699 60.8792 202.668 61.0203 203.932 61.1261C205.238 61.2249 206.852 61.2814 208.769 61.2814H212.16C214.077 61.2814 215.699 61.2179 216.997 61.1261C218.275 61.0203 219.244 60.8862 219.932 60.6957H219.96C220.662 60.5194 221.28 60.2865 221.842 59.9972C222.389 59.7221 222.909 59.3905 223.365 58.9954C223.737 58.6567 224.067 58.2616 224.341 57.8171C224.615 57.3655 224.833 56.8434 225.001 56.2508C225.177 55.6087 225.331 54.6421 225.429 53.4074C225.528 52.095 225.57 50.4723 225.57 48.5108V32.6923C225.57 30.7943 225.528 29.1927 225.422 27.8875C225.324 26.6245 225.177 25.6438 224.994 24.9453C224.819 24.3174 224.58 23.767 224.292 23.2872C224.032 22.8428 223.688 22.4547 223.302 22.116C222.86 21.735 222.354 21.4034 221.807 21.1353C221.231 20.839 220.613 20.6061 219.967 20.4439V20.4509C219.265 20.2675 218.296 20.1334 217.047 20.0417C215.727 19.95 214.105 19.9076 212.16 19.9076ZM185.151 31.1683C185.151 27.45 185.544 24.2609 186.331 21.5939C187.159 18.7999 188.423 16.5774 190.136 14.9476C191.835 13.3107 194.138 12.1042 197.044 11.321C199.804 10.5732 203.124 10.1992 207.014 10.1992H214C222.038 10.1992 227.669 11.7585 230.934 14.877C232.605 16.4998 233.868 18.7294 234.69 21.5516C235.455 24.2186 235.855 27.4289 235.855 31.1683V49.9995C235.855 53.7249 235.455 56.921 234.662 59.581V59.5951C233.84 62.3891 232.563 64.6186 230.849 66.2414C229.15 67.8712 226.848 69.0707 223.941 69.8468C221.182 70.5947 217.868 70.9616 214 70.9616H207.014C203.124 70.9616 199.804 70.5947 197.044 69.8468C194.138 69.0777 191.842 67.8783 190.143 66.2414C188.423 64.6186 187.152 62.3891 186.331 59.581C185.544 56.921 185.158 53.7249 185.158 49.9995V31.1683H185.151ZM241.107 48.2992H245.179C246 48.2992 246.745 48.6378 247.292 49.1811C247.826 49.7103 248.156 50.4652 248.184 51.2836V51.3189C248.184 52.9347 248.24 54.3105 248.345 55.4182C248.458 56.4977 248.605 57.3655 248.823 58.0217C248.998 58.6003 249.237 59.08 249.525 59.461C249.756 59.7856 250.03 60.0466 250.36 60.223C250.634 60.3712 251.048 60.5335 251.596 60.6675C252.2 60.8157 252.923 60.9568 253.751 61.0485C254.671 61.1614 256.026 61.232 257.837 61.2814C259.55 61.3378 261.938 61.3519 264.999 61.3519C266.536 61.3519 267.877 61.3025 269.029 61.2037C270.166 61.105 271.114 60.9709 271.879 60.7875V60.8016C272.595 60.6181 273.199 60.3853 273.69 60.1454C274.133 59.9196 274.484 59.6586 274.743 59.3764C274.828 59.2776 274.905 59.1435 274.989 58.946C275.101 58.6567 275.207 58.2616 275.305 57.803H275.319C275.403 57.2879 275.467 56.66 275.509 55.9262C275.565 55.1924 275.593 54.3246 275.593 53.3156C275.593 51.326 275.495 49.7385 275.319 48.5814C275.158 47.6218 274.975 47.008 274.771 46.754C274.582 46.5141 274.252 46.3024 273.754 46.0978C273.108 45.8509 272.258 45.6886 271.233 45.611L254.201 44.2634C251.512 44.0658 249.181 43.5931 247.25 42.9017C245.179 42.1538 243.536 41.1096 242.357 39.8113L242.342 39.7831C241.149 38.4708 240.271 36.7492 239.696 34.6326C239.162 32.6358 238.902 30.2793 238.902 27.5488C238.902 25.8555 238.987 24.3244 239.162 22.9415C239.338 21.5163 239.604 20.2604 239.955 19.1598C240.342 18.0238 240.833 16.9725 241.437 16.02H241.451C242.069 15.0464 242.792 14.1785 243.634 13.4236L243.648 13.4095C245.01 12.203 246.864 11.3493 249.209 10.8554H249.223C250.332 10.6296 251.814 10.4673 253.653 10.3544C255.52 10.2486 257.711 10.1992 260.224 10.1992H262.197C265.02 10.1992 267.491 10.2698 269.548 10.4109C271.661 10.559 273.332 10.7778 274.596 11.0741C275.888 11.3775 277.081 11.8008 278.191 12.337C279.3 12.8874 280.318 13.5435 281.238 14.3267C281.912 14.9053 282.501 15.6038 283.007 16.4081C283.47 17.1913 283.87 18.0732 284.172 19.0539V19.061C284.474 20.0205 284.678 21.0577 284.818 22.1795C284.959 23.2873 285.022 24.4938 285.022 25.792C285.022 25.8907 285.022 26.1871 285.008 26.7797C285.008 27.062 284.994 27.2877 284.994 27.45V27.4571L284.98 27.5135V27.5347C284.952 28.339 284.622 29.0657 284.088 29.5808C283.54 30.11 282.81 30.4416 282.003 30.4416H277.889C277.067 30.4416 276.309 30.1029 275.775 29.5455C275.228 29.0022 274.898 28.2473 274.898 27.4289V27.1043C274.898 26.1095 274.87 25.2557 274.8 24.5502C274.757 23.8446 274.673 23.2731 274.596 22.8428L274.582 22.8216C274.498 22.4265 274.392 22.1019 274.266 21.8479C274.196 21.6645 274.09 21.5304 274.006 21.4175C273.789 21.22 273.473 21.0295 273.016 20.8531C272.483 20.6414 271.795 20.4721 270.959 20.338L270.931 20.331C270.011 20.1899 268.67 20.077 266.901 19.9994C265.174 19.9288 262.899 19.9006 260.07 19.9006C257.311 19.9006 255.12 20.0488 253.477 20.3451C252.038 20.6061 251.104 20.9378 250.627 21.3399C250.199 21.735 249.848 22.3912 249.588 23.3155C249.272 24.4232 249.125 25.8625 249.125 27.6264C249.125 29.0728 249.237 30.2722 249.426 31.2247C249.602 32.0361 249.841 32.6147 250.129 32.9886C250.388 33.3202 250.817 33.5954 251.406 33.8212C252.136 34.1034 253.077 34.301 254.271 34.3927L271.633 35.8532C274.09 36.0648 276.211 36.5235 277.98 37.222C279.876 37.9628 281.378 38.9929 282.508 40.3052C283.618 41.5964 284.453 43.2686 284.994 45.3429C285.499 47.2973 285.745 49.6044 285.745 52.2361C285.745 54.0918 285.675 55.7216 285.555 57.1327C285.429 58.6285 285.24 59.8702 284.98 60.9004C284.72 61.9305 284.348 62.9112 283.884 63.8284C283.435 64.7174 282.866 65.5429 282.214 66.2908C281.392 67.201 280.458 67.9771 279.391 68.605C278.338 69.2259 277.173 69.7127 275.867 70.0655H275.853C274.617 70.3971 272.89 70.637 270.713 70.8063C268.572 70.9545 266.01 71.0321 262.991 71.0321H260.246C257.683 71.0321 255.457 70.9686 253.583 70.8416C251.666 70.6934 250.114 70.4818 248.963 70.1925C247.741 69.8891 246.646 69.4799 245.642 68.9648C244.751 68.5133 243.915 67.9559 243.157 67.3209L243.115 67.3068L242.827 67.0528C242.02 66.3331 241.289 65.4794 240.672 64.4987C240.082 63.5321 239.59 62.4879 239.218 61.3307C238.86 60.223 238.6 58.946 238.411 57.5137C238.235 56.1026 238.137 54.5786 238.137 52.977V51.3119C238.137 50.4864 238.481 49.7244 239.029 49.174C239.541 48.6378 240.285 48.2992 241.107 48.2992Z" fill="white"/>
</svg>
