<svg role="link" width="557" height="237" viewBox="0 0 557 237" fill="none" xmlns="http://www.w3.org/2000/svg">
  <g clip-path="url(#clip0)">
  <title>Digicos Logo</title>
  <path d="M420.093 121.203C420.093 121.203 416.502 121.465 416.502 124.81C416.502 128.154 419.019 128.708 419.938 128.708H432.454H446.335C446.335 128.708 448.454 128.883 451.416 123.701C452.113 122.437 452.191 122.544 452.946 121.232C453.72 119.9 455.918 117.907 456.556 121.611C457.069 124.469 459.015 138.177 459.015 138.177L460.486 148.162C460.486 148.162 461.377 150.961 464.358 150.961C467.34 150.961 467.475 151.652 468.917 146.266C470.331 140.88 476.69 115.895 476.69 115.895L483.117 90.8608C483.117 90.8608 483.872 86.0679 485.402 86.0679C486.912 86.0679 486.912 88.9164 487.231 90.7927C487.531 92.669 492.962 152.779 492.962 152.779C492.962 152.779 493.813 157.533 497.705 157.533C501.596 157.533 503.096 152.527 503.096 152.527L513.589 133.238C513.589 133.238 513.87 131.586 516.686 131.586H544.361C544.361 131.586 547.632 130.876 547.632 127.337C547.632 124.858 543.605 124.08 538.882 124.08H515.815C515.815 124.08 509.543 124.08 507.965 127.133C504.868 133.258 499.776 142.941 499.776 142.941L494.123 79.1945C494.123 79.1945 493.107 65.127 486.292 65.127C480.755 65.127 478.423 78.7279 478.423 78.7279L466.856 123.225C466.856 123.225 465.249 127.882 464.397 122.632C463.845 119.297 461.638 104.452 461.638 104.452C461.638 104.452 461.377 100.544 458.231 100.34C455.075 100.155 453.904 104.928 453.372 105.463C452.82 106.007 445.56 119.783 445.56 119.783C445.56 119.783 444.883 121.212 442.647 121.212C440.44 121.271 420.093 121.203 420.093 121.203Z" fill="#FF304F"/>
  <path d="M1.392 219.816L10.896 191.928H1.824V186.12H19.344V190.968L9.696 219.192H19.44V225H1.392V219.816ZM28.9256 225.48C27.5816 225.48 26.4136 225.16 25.4216 224.52C24.4616 223.848 23.7256 223 23.2136 221.976C22.7336 220.92 22.4936 219.832 22.4936 218.712C22.4936 216.568 23.0376 214.808 24.1256 213.432C25.2136 212.056 26.5096 210.984 28.0136 210.216C29.5496 209.448 31.5176 208.648 33.9176 207.816V205.032C33.9176 204.232 33.7896 203.624 33.5336 203.208C33.3096 202.792 32.8936 202.584 32.2856 202.584C31.6776 202.584 31.2456 202.776 30.9896 203.16C30.7336 203.544 30.5896 204.088 30.5576 204.792L30.3656 206.808L23.0696 206.52C23.1976 203.192 24.0776 200.744 25.7096 199.176C27.3416 197.576 29.7736 196.776 33.0056 196.776C35.7256 196.776 37.8056 197.544 39.2456 199.08C40.6856 200.584 41.4056 202.6 41.4056 205.128V218.088C41.4056 220.904 41.5656 223.208 41.8856 225H34.8776C34.5896 222.856 34.3816 221.544 34.2536 221.064C33.8696 222.344 33.2296 223.4 32.3336 224.232C31.4376 225.064 30.3016 225.48 28.9256 225.48ZM31.7096 220.2C32.5096 220.2 33.2456 219.736 33.9176 218.808V211.224C32.4776 212.056 31.3896 212.936 30.6536 213.864C29.9176 214.76 29.5496 215.864 29.5496 217.176C29.5496 218.104 29.7416 218.84 30.1256 219.384C30.5096 219.928 31.0376 220.2 31.7096 220.2ZM46.0418 197.256H53.8658V199.272C54.7618 198.44 55.7378 197.816 56.7938 197.4C57.8498 196.984 58.8738 196.776 59.8658 196.776C61.8818 196.776 63.3698 197.528 64.3298 199.032C65.3218 200.536 65.8178 202.504 65.8178 204.936V216.888C65.8178 219.544 65.2898 221.64 64.2338 223.176C63.1778 224.712 61.6898 225.48 59.7698 225.48C57.8178 225.48 55.8498 224.616 53.8658 222.888V234.12H46.0418V197.256ZM55.9297 220.44C56.6338 220.44 57.1458 220.152 57.4658 219.576C57.8178 219 57.9938 218.248 57.9938 217.32V204.36C57.9938 203.528 57.8338 202.84 57.5138 202.296C57.1938 201.752 56.7138 201.48 56.0738 201.48C55.3058 201.48 54.5698 201.8 53.8658 202.44V219.72C54.6018 220.2 55.2898 220.44 55.9297 220.44ZM79.3481 225.48C76.3081 225.48 73.9401 224.68 72.2441 223.08C70.5481 221.448 69.7001 219.16 69.7001 216.216V206.04C69.7001 203.096 70.5481 200.824 72.2441 199.224C73.9401 197.592 76.3081 196.776 79.3481 196.776C82.4201 196.776 84.7241 197.56 86.2601 199.128C87.7961 200.696 88.5641 203 88.5641 206.04V211.608H77.4281V216.936C77.4281 218.92 78.0681 219.912 79.3481 219.912C80.6921 219.912 81.3641 219.016 81.3641 217.224V214.296H88.5641V216.984C88.5641 219.768 87.7481 221.88 86.1161 223.32C84.5161 224.76 82.2601 225.48 79.3481 225.48ZM81.3641 207.96V205.176C81.3641 204.152 81.1721 203.432 80.7881 203.016C80.4361 202.568 79.9401 202.344 79.3001 202.344C78.6921 202.344 78.2281 202.584 77.9081 203.064C77.5881 203.544 77.4281 204.392 77.4281 205.608V207.96H81.3641ZM91.383 197.256H97.911L99.927 213L102.087 197.256H107.751L109.623 213.384L111.975 197.256H118.023L113.895 225H107.175L104.775 209.4L102.087 225H95.463L91.383 197.256ZM121.464 197.256H129.288V200.04C131.464 197.864 133.688 196.776 135.96 196.776C137.624 196.776 138.888 197.384 139.752 198.6C140.648 199.784 141.096 201.336 141.096 203.256V225H133.32V204.36C133.32 203.656 133.192 203.144 132.936 202.824C132.712 202.472 132.312 202.296 131.736 202.296C131.096 202.296 130.28 202.632 129.288 203.304V225H121.464V197.256ZM145.792 187.128H153.664V192.552H145.792V187.128ZM145.84 197.256H153.664V225H145.84V197.256ZM164.207 225.48C162.863 225.48 161.695 225.16 160.703 224.52C159.743 223.848 159.007 223 158.495 221.976C158.015 220.92 157.775 219.832 157.775 218.712C157.775 216.568 158.319 214.808 159.407 213.432C160.495 212.056 161.791 210.984 163.295 210.216C164.831 209.448 166.799 208.648 169.199 207.816V205.032C169.199 204.232 169.071 203.624 168.815 203.208C168.591 202.792 168.175 202.584 167.567 202.584C166.959 202.584 166.527 202.776 166.271 203.16C166.015 203.544 165.871 204.088 165.839 204.792L165.647 206.808L158.351 206.52C158.479 203.192 159.359 200.744 160.991 199.176C162.623 197.576 165.055 196.776 168.287 196.776C171.007 196.776 173.087 197.544 174.527 199.08C175.967 200.584 176.687 202.6 176.687 205.128V218.088C176.687 220.904 176.847 223.208 177.167 225H170.159C169.871 222.856 169.663 221.544 169.535 221.064C169.151 222.344 168.511 223.4 167.615 224.232C166.719 225.064 165.583 225.48 164.207 225.48ZM166.991 220.2C167.791 220.2 168.527 219.736 169.199 218.808V211.224C167.759 212.056 166.671 212.936 165.935 213.864C165.199 214.76 164.831 215.864 164.831 217.176C164.831 218.104 165.023 218.84 165.407 219.384C165.791 219.928 166.319 220.2 166.991 220.2ZM181.323 197.256H189.003V199.464C190.859 197.64 193.051 196.728 195.579 196.728C196.699 196.728 197.659 197.016 198.459 197.592C199.291 198.136 199.915 198.952 200.331 200.04C202.283 197.832 204.635 196.728 207.387 196.728C209.019 196.728 210.315 197.336 211.275 198.552C212.267 199.736 212.763 201.368 212.763 203.448V225H205.083V204.264C205.083 203.496 204.939 202.952 204.651 202.632C204.395 202.28 203.995 202.104 203.451 202.104C203.099 202.104 202.683 202.2 202.203 202.392C201.723 202.552 201.275 202.792 200.859 203.112V203.448V225H193.275V204.264C193.275 202.824 192.715 202.104 191.595 202.104C190.859 202.104 189.995 202.44 189.003 203.112V225H181.323V197.256ZM218.232 227.64C219.768 227.64 220.888 227.464 221.592 227.112C222.328 226.792 222.696 226.184 222.696 225.288C222.696 224.488 222.36 222.936 221.688 220.632L215.16 197.256H222.504L226.008 213.288L228.648 197.256H236.04L229.656 225.672C229.048 228.392 227.944 230.296 226.344 231.384C224.744 232.504 222.632 233.064 220.008 233.064H218.232V227.64ZM259.853 225.288C257.805 225.288 256.221 225 255.101 224.424C253.981 223.816 253.197 222.952 252.749 221.832C252.301 220.712 252.077 219.256 252.077 217.464V202.392H249.389V197.256H252.077V188.808H259.997V197.256H263.933V202.392H259.997V216.696C259.997 217.464 260.205 218.04 260.621 218.424C261.069 218.776 261.677 218.952 262.445 218.952C263.085 218.952 263.789 218.888 264.557 218.76V224.904C263.021 225.16 261.453 225.288 259.853 225.288ZM266.789 197.256H273.317L275.333 213L277.493 197.256H283.157L285.029 213.384L287.381 197.256H293.429L289.301 225H282.581L280.181 209.4L277.493 225H270.869L266.789 197.256ZM305.99 225.48C302.95 225.48 300.566 224.712 298.838 223.176C297.142 221.64 296.294 219.384 296.294 216.408V205.848C296.294 202.872 297.142 200.616 298.838 199.08C300.566 197.544 302.95 196.776 305.99 196.776C309.03 196.776 311.414 197.56 313.142 199.128C314.87 200.664 315.734 202.904 315.734 205.848V216.408C315.734 219.352 314.87 221.608 313.142 223.176C311.414 224.712 309.03 225.48 305.99 225.48ZM306.038 220.296C306.774 220.296 307.286 220.024 307.574 219.48C307.862 218.904 308.006 218.056 308.006 216.936V205.32C308.006 204.2 307.862 203.368 307.574 202.824C307.286 202.248 306.774 201.96 306.038 201.96C305.302 201.96 304.774 202.248 304.454 202.824C304.166 203.4 304.022 204.232 304.022 205.32V216.936C304.022 218.056 304.166 218.904 304.454 219.48C304.774 220.024 305.302 220.296 306.038 220.296ZM320.697 187.128H328.521V192.552H320.697V187.128ZM321.369 233.64C319.929 233.64 318.537 233.432 317.193 233.016V227.4C317.769 227.528 318.233 227.592 318.585 227.592C319.993 227.592 320.697 226.808 320.697 225.24V197.256H328.521V226.2C328.521 228.44 327.897 230.232 326.649 231.576C325.433 232.952 323.673 233.64 321.369 233.64ZM339.098 225.48C337.754 225.48 336.586 225.16 335.594 224.52C334.634 223.848 333.898 223 333.386 221.976C332.906 220.92 332.666 219.832 332.666 218.712C332.666 216.568 333.21 214.808 334.298 213.432C335.386 212.056 336.682 210.984 338.186 210.216C339.722 209.448 341.69 208.648 344.09 207.816V205.032C344.09 204.232 343.962 203.624 343.706 203.208C343.482 202.792 343.066 202.584 342.458 202.584C341.85 202.584 341.418 202.776 341.162 203.16C340.906 203.544 340.762 204.088 340.73 204.792L340.538 206.808L333.242 206.52C333.37 203.192 334.25 200.744 335.882 199.176C337.514 197.576 339.946 196.776 343.178 196.776C345.898 196.776 347.978 197.544 349.418 199.08C350.858 200.584 351.578 202.6 351.578 205.128V218.088C351.578 220.904 351.738 223.208 352.058 225H345.049C344.762 222.856 344.554 221.544 344.426 221.064C344.042 222.344 343.402 223.4 342.506 224.232C341.61 225.064 340.474 225.48 339.098 225.48ZM341.882 220.2C342.682 220.2 343.418 219.736 344.09 218.808V211.224C342.65 212.056 341.562 212.936 340.826 213.864C340.09 214.76 339.722 215.864 339.722 217.176C339.722 218.104 339.914 218.84 340.298 219.384C340.682 219.928 341.21 220.2 341.882 220.2ZM351.002 237.48C348.858 237.48 347.05 237.112 345.578 236.376C344.106 235.672 343.37 234.312 343.37 232.296C343.37 231.08 343.738 229.784 344.474 228.408C345.21 227.064 346.09 225.928 347.114 225H350.618C349.466 227.112 348.89 229.048 348.89 230.808C348.89 231.8 349.178 232.52 349.754 232.968C350.33 233.416 351.066 233.64 351.962 233.64C352.442 233.64 352.906 233.608 353.354 233.544L352.586 237.336C352.202 237.432 351.674 237.48 351.002 237.48ZM370.223 205.128L367.007 206.52V202.152L370.223 200.76V186.12H377.999V197.448L381.695 195.864V200.232L377.999 201.768V225H370.223V205.128ZM390.238 225.48C388.894 225.48 387.726 225.16 386.734 224.52C385.774 223.848 385.038 223 384.526 221.976C384.046 220.92 383.806 219.832 383.806 218.712C383.806 216.568 384.35 214.808 385.438 213.432C386.526 212.056 387.822 210.984 389.326 210.216C390.862 209.448 392.83 208.648 395.23 207.816V205.032C395.23 204.232 395.102 203.624 394.846 203.208C394.622 202.792 394.206 202.584 393.598 202.584C392.99 202.584 392.558 202.776 392.302 203.16C392.046 203.544 391.902 204.088 391.87 204.792L391.678 206.808L384.382 206.52C384.51 203.192 385.39 200.744 387.022 199.176C388.654 197.576 391.086 196.776 394.318 196.776C397.038 196.776 399.118 197.544 400.558 199.08C401.998 200.584 402.718 202.6 402.718 205.128V218.088C402.718 220.904 402.878 223.208 403.198 225H396.19C395.902 222.856 395.694 221.544 395.566 221.064C395.182 222.344 394.542 223.4 393.646 224.232C392.75 225.064 391.614 225.48 390.238 225.48ZM393.022 220.2C393.822 220.2 394.558 219.736 395.23 218.808V211.224C393.79 212.056 392.702 212.936 391.966 213.864C391.23 214.76 390.862 215.864 390.862 217.176C390.862 218.104 391.054 218.84 391.438 219.384C391.822 219.928 392.35 220.2 393.022 220.2ZM402.142 237.48C399.998 237.48 398.19 237.112 396.718 236.376C395.246 235.672 394.51 234.312 394.51 232.296C394.51 231.08 394.878 229.784 395.614 228.408C396.35 227.064 397.23 225.928 398.254 225H401.758C400.606 227.112 400.03 229.048 400.03 230.808C400.03 231.8 400.318 232.52 400.894 232.968C401.47 233.416 402.206 233.64 403.102 233.64C403.582 233.64 404.046 233.608 404.494 233.544L403.726 237.336C403.342 237.432 402.814 237.48 402.142 237.48ZM416.378 225.48C413.37 225.48 411.018 224.664 409.322 223.032C407.626 221.4 406.778 219.128 406.778 216.216V206.04C406.778 203.096 407.61 200.824 409.274 199.224C410.97 197.592 413.338 196.776 416.378 196.776C419.386 196.776 421.69 197.48 423.29 198.888C424.922 200.296 425.738 202.376 425.738 205.128V208.056H418.202V204.888C418.202 203.832 418.042 203.112 417.722 202.728C417.434 202.312 416.986 202.104 416.378 202.104C415.77 202.104 415.322 202.36 415.034 202.872C414.778 203.352 414.65 204.184 414.65 205.368V216.888C414.65 218.072 414.794 218.904 415.082 219.384C415.37 219.864 415.818 220.104 416.426 220.104C417.034 220.104 417.482 219.896 417.77 219.48C418.058 219.064 418.202 218.36 418.202 217.368V213.672H425.738V217.032C425.738 219.784 424.922 221.88 423.29 223.32C421.658 224.76 419.354 225.48 416.378 225.48ZM429.039 219.96L436.671 202.968H429.615V197.256H444.831V202.008L437.103 219.288H444.927V225H429.039V219.96ZM448.604 197.256H456.428V200.04C458.604 197.864 460.828 196.776 463.1 196.776C464.764 196.776 466.028 197.384 466.892 198.6C467.788 199.784 468.236 201.336 468.236 203.256V225H460.46V204.36C460.46 203.656 460.332 203.144 460.076 202.824C459.852 202.472 459.452 202.296 458.876 202.296C458.236 202.296 457.42 202.632 456.428 203.304V225H448.604V197.256ZM482.052 225.48C479.012 225.48 476.628 224.712 474.9 223.176C473.204 221.64 472.356 219.384 472.356 216.408V205.848C472.356 202.872 473.204 200.616 474.9 199.08C476.628 197.544 479.012 196.776 482.052 196.776C485.092 196.776 487.476 197.56 489.204 199.128C490.932 200.664 491.796 202.904 491.796 205.848V216.408C491.796 219.352 490.932 221.608 489.204 223.176C487.476 224.712 485.092 225.48 482.052 225.48ZM482.1 220.296C482.836 220.296 483.348 220.024 483.636 219.48C483.924 218.904 484.068 218.056 484.068 216.936V205.32C484.068 204.2 483.924 203.368 483.636 202.824C483.348 202.248 482.836 201.96 482.1 201.96C481.364 201.96 480.836 202.248 480.516 202.824C480.228 203.4 480.084 204.232 480.084 205.32V216.936C480.084 218.056 480.228 218.904 480.516 219.48C480.836 220.024 481.364 220.296 482.1 220.296ZM504.68 225.48C502.216 225.48 500.168 224.936 498.536 223.848C496.936 222.728 495.64 220.952 494.648 218.52L499.976 216.168C500.488 217.448 501.08 218.44 501.752 219.144C502.456 219.848 503.224 220.2 504.056 220.2C505.272 220.2 505.88 219.72 505.88 218.76C505.88 218.056 505.64 217.432 505.16 216.888C504.68 216.312 503.64 215.368 502.04 214.056L500.023 212.376C498.36 210.968 497.144 209.688 496.376 208.536C495.64 207.384 495.271 206.008 495.271 204.408C495.271 202.936 495.656 201.624 496.424 200.472C497.224 199.32 498.28 198.424 499.592 197.784C500.904 197.112 502.312 196.776 503.816 196.776C506.088 196.776 507.976 197.4 509.48 198.648C511.016 199.864 512.104 201.624 512.744 203.928L507.704 206.232C507.384 205.208 506.888 204.296 506.216 203.496C505.544 202.664 504.808 202.248 504.008 202.248C503.496 202.248 503.08 202.392 502.76 202.68C502.472 202.968 502.328 203.352 502.328 203.832C502.328 204.408 502.632 205.032 503.24 205.704C503.88 206.376 504.872 207.256 506.216 208.344L508.184 210.072C509.784 211.416 511.016 212.68 511.88 213.864C512.744 215.016 513.176 216.376 513.176 217.944C513.176 219.512 512.776 220.872 511.976 222.024C511.208 223.144 510.168 224.008 508.856 224.616C507.576 225.192 506.184 225.48 504.68 225.48ZM504.296 184.536H512.264L506.216 194.184H501.272L504.296 184.536ZM525.503 225.48C522.495 225.48 520.143 224.664 518.447 223.032C516.751 221.4 515.903 219.128 515.903 216.216V206.04C515.903 203.096 516.735 200.824 518.399 199.224C520.095 197.592 522.463 196.776 525.503 196.776C528.511 196.776 530.815 197.48 532.415 198.888C534.047 200.296 534.863 202.376 534.863 205.128V208.056H527.327V204.888C527.327 203.832 527.167 203.112 526.847 202.728C526.559 202.312 526.111 202.104 525.503 202.104C524.895 202.104 524.447 202.36 524.159 202.872C523.903 203.352 523.775 204.184 523.775 205.368V216.888C523.775 218.072 523.919 218.904 524.207 219.384C524.495 219.864 524.943 220.104 525.551 220.104C526.159 220.104 526.607 219.896 526.895 219.48C527.183 219.064 527.327 218.36 527.327 217.368V213.672H534.863V217.032C534.863 219.784 534.047 221.88 532.415 223.32C530.783 224.76 528.479 225.48 525.503 225.48ZM525.743 184.536H533.711L527.663 194.184H522.719L525.743 184.536Z" fill="white"/>
  <path d="M1.22656 157.465V83.8902C1.22656 82.7625 1.69119 81.7223 2.43652 80.964C3.18185 80.2057 4.21757 79.7487 5.35977 79.7487H40.6808C45.6852 79.7487 49.9926 80.264 53.5935 81.2751C57.3782 82.3542 60.4176 83.9972 62.673 86.2235C64.9186 88.4498 66.6029 91.4539 67.6967 95.2162C68.7324 98.7939 69.2551 103.081 69.2551 108.03V133.229C69.2551 138.197 68.7324 142.494 67.687 146.081C66.5739 149.873 64.8896 152.886 62.6246 155.113C60.3692 157.339 57.3395 158.992 53.5547 160.09C49.9636 161.111 45.6658 161.617 40.6711 161.617H5.35977C4.21757 161.617 3.18185 161.15 2.43652 160.392C1.69119 159.653 1.22656 158.622 1.22656 157.465ZM15.0007 148.677H39.3063C42.7523 148.677 45.5884 148.375 47.8244 147.802C49.799 147.296 51.2413 146.616 52.1415 145.712C53.0417 144.808 53.7386 143.408 54.2323 141.492C54.7937 139.354 55.0648 136.631 55.0648 133.336V108.642C55.0648 105.162 54.784 102.303 54.2226 100.048C53.7193 98.0453 53.032 96.587 52.1415 95.7023C51.2703 94.8079 49.8377 94.1177 47.8631 93.6121C45.6271 93.0483 42.7716 92.7663 39.3063 92.7663H15.0007V148.677ZM74.4628 157.465V83.8902C74.4628 82.7528 74.9274 81.7125 75.6727 80.964H75.6921C76.4374 80.2057 77.4731 79.7487 78.596 79.7487H84.2102C85.333 79.7487 86.3687 80.2057 87.1141 80.964H87.1237C87.8691 81.7125 88.3337 82.7528 88.3337 83.8902V157.465C88.3337 158.603 87.8788 159.653 87.1237 160.382C86.3687 161.16 85.333 161.626 84.2102 161.626H78.596C77.4538 161.626 76.4277 161.16 75.6727 160.401V160.382C74.9371 159.653 74.4628 158.603 74.4628 157.465ZM93.1445 107.709C93.1445 102.585 93.6866 98.1911 94.761 94.526C95.9032 90.6664 97.6552 87.5943 100.017 85.3388C102.36 83.0931 105.525 81.4403 109.522 80.3612C113.327 79.3307 117.886 78.8154 123.229 78.8154H132.908C137.777 78.8154 142.046 79.2335 145.705 80.0793C149.499 80.964 152.665 82.3056 155.191 84.1236C157.814 85.9999 159.789 88.4109 161.086 91.3567C162.354 94.2246 162.993 97.53 162.993 101.292V103.062C162.993 104.199 162.528 105.249 161.783 106.008V105.998C161.028 106.756 159.992 107.223 158.86 107.223H153.052C151.929 107.223 150.903 106.766 150.158 106.017L150.148 106.008C149.412 105.278 148.948 104.258 148.928 103.14C148.89 100.962 148.599 99.1342 148.038 97.6662C147.554 96.3829 146.876 95.401 145.995 94.7107C144.989 93.9329 143.421 93.3205 141.301 92.883C138.968 92.4163 136.006 92.183 132.395 92.183H125.687C123.132 92.183 120.964 92.2413 119.192 92.3872C117.46 92.5233 116.095 92.708 115.088 92.9705C114.14 93.2038 113.268 93.5246 112.465 93.933C111.681 94.3315 110.974 94.7885 110.355 95.3037V95.3135C109.842 95.7607 109.387 96.2954 109.019 96.9176C108.632 97.5398 108.322 98.2689 108.1 99.0758V99.0856C107.848 99.9702 107.664 101.283 107.519 103.013C107.383 104.821 107.306 107.077 107.306 109.799V131.576C107.306 134.279 107.383 136.544 107.519 138.343C107.654 140.054 107.848 141.385 108.1 142.26C108.322 143.077 108.632 143.787 109.019 144.419C109.387 145.031 109.823 145.556 110.316 146.013C110.974 146.567 111.681 147.024 112.465 147.423C113.268 147.841 114.12 148.162 115.011 148.385H115.03C115.969 148.638 117.305 148.832 119.038 148.978C120.828 149.114 123.045 149.192 125.687 149.192H132.395C134.777 149.192 136.771 149.124 138.377 148.998C139.936 148.862 141.146 148.696 142.007 148.492H142.017C142.82 148.278 143.566 148.006 144.263 147.656C144.95 147.316 145.579 146.898 146.141 146.431L146.257 146.324C146.654 145.974 147.002 145.537 147.312 145.031C147.67 144.419 147.951 143.738 148.183 142.97C148.406 142.124 148.58 140.938 148.706 139.363C148.841 137.73 148.909 135.718 148.909 133.326V127.017H131.95C130.827 127.017 129.792 126.56 129.046 125.801L129.037 125.782C128.282 125.033 127.827 123.993 127.827 122.875V118.014C127.827 116.896 128.291 115.846 129.037 115.097L129.046 115.088C129.801 114.329 130.827 113.873 131.95 113.873H158.869C160.002 113.873 161.038 114.329 161.793 115.088C162.548 115.846 163.012 116.877 163.012 118.014V133.618C163.012 138.77 162.47 143.174 161.386 146.839C160.244 150.709 158.492 153.781 156.12 156.017C153.787 158.263 150.613 159.915 146.625 160.985C142.83 162.015 138.261 162.521 132.918 162.521H123.239C117.905 162.521 113.336 162.015 109.532 160.985C105.534 159.925 102.369 158.272 100.036 156.017C97.6649 153.781 95.9129 150.709 94.7707 146.839C93.6866 143.174 93.1445 138.77 93.1445 133.618V107.709ZM167.6 157.465V83.8902C167.6 82.7528 168.075 81.7125 168.839 80.9542C169.594 80.2057 170.62 79.7487 171.743 79.7487H177.348C178.48 79.7487 179.506 80.2057 180.252 80.964H180.261C181.007 81.7125 181.471 82.7528 181.471 83.8902V157.465C181.471 158.603 181.007 159.653 180.261 160.401C179.506 161.16 178.48 161.626 177.338 161.626H171.734C170.611 161.626 169.585 161.16 168.83 160.401C168.075 159.653 167.6 158.603 167.6 157.465ZM186.814 107.728C186.814 102.615 187.318 98.2203 188.324 94.5649C189.38 90.6956 191.006 87.6429 193.184 85.4069C195.381 83.1417 198.353 81.4695 202.099 80.3709C205.661 79.3501 209.92 78.8154 214.866 78.8154H223.771C228.669 78.8154 232.87 79.2529 236.384 80.1376C240.082 81.0709 243.034 82.5 245.26 84.4347H245.27C247.525 86.4082 249.2 89.0234 250.303 92.2997H250.313C251.349 95.3912 251.871 99.0564 251.871 103.295V105.21C251.871 106.348 251.407 107.369 250.661 108.127C249.906 108.885 248.88 109.352 247.748 109.352H241.94C240.817 109.352 239.772 108.895 239.026 108.137C238.271 107.378 237.807 106.348 237.807 105.21V104.54C237.807 101.895 237.555 99.7175 237.042 97.9967C236.607 96.4995 235.977 95.3815 235.184 94.6718C234.351 93.933 233.006 93.3399 231.147 92.9122C229.066 92.4358 226.395 92.1927 223.162 92.1927H217.296C215.05 92.1927 213.133 92.2511 211.546 92.3872C210.026 92.5136 208.826 92.6983 207.926 92.9413V92.9316C207.113 93.1552 206.338 93.4663 205.632 93.8552C204.973 94.2149 204.383 94.6427 203.86 95.1385L203.831 95.1676C203.328 95.6246 202.902 96.169 202.544 96.7815C202.166 97.4231 201.876 98.1717 201.644 99.0078C201.411 99.8925 201.227 101.215 201.102 102.945C200.966 104.773 200.898 107.067 200.898 109.838V131.605C200.898 134.347 200.966 136.641 201.102 138.44C201.237 140.18 201.411 141.492 201.653 142.397C201.866 143.194 202.176 143.923 202.554 144.584C202.912 145.206 203.347 145.751 203.851 146.217L203.87 146.237C204.402 146.762 204.993 147.18 205.641 147.559C206.309 147.919 207.035 148.22 207.819 148.463C208.642 148.687 209.813 148.862 211.362 148.988C212.979 149.124 214.953 149.202 217.315 149.202H223.181C226.501 149.202 229.221 148.949 231.351 148.444C233.209 148.006 234.554 147.394 235.358 146.616C236.161 145.838 236.781 144.603 237.226 142.97C237.729 141.074 237.991 138.692 237.991 135.756V134.6C237.991 134.337 237.971 134.036 237.962 133.744V133.705C237.942 133.112 238.02 132.548 238.233 132.043C238.436 131.537 238.726 131.1 239.094 130.701C239.51 130.264 239.985 129.923 240.507 129.709C241.011 129.505 241.524 129.418 242.066 129.418H247.758C248.89 129.418 249.916 129.884 250.671 130.633C251.416 131.372 251.881 132.422 251.881 133.55V137.137C251.881 141.638 251.378 145.517 250.381 148.745C249.326 152.167 247.699 154.889 245.492 156.853C243.324 158.836 240.372 160.285 236.616 161.218C233.073 162.093 228.795 162.54 223.791 162.54H214.885C209.929 162.54 205.68 162.035 202.118 160.985C198.362 159.896 195.4 158.224 193.203 155.949C191.015 153.723 189.399 150.68 188.344 146.82C187.337 143.165 186.834 138.77 186.834 133.657V107.728H186.814ZM292.507 92.1927H287.831C285.208 92.1927 282.991 92.2511 281.191 92.3969C279.42 92.533 278.064 92.7177 277.135 92.9705C276.225 93.2038 275.374 93.5246 274.58 93.933C273.815 94.3218 273.108 94.7982 272.441 95.3523C271.918 95.7996 271.482 96.3343 271.105 96.9467C270.708 97.6175 270.389 98.3953 270.147 99.2508C269.905 100.174 269.711 101.516 269.556 103.276C269.411 105.074 269.343 107.291 269.343 109.925V131.605C269.343 134.211 269.421 136.408 269.556 138.187C269.701 139.908 269.895 141.23 270.147 142.144C270.398 143.009 270.718 143.787 271.095 144.409C271.463 145.021 271.908 145.566 272.441 146.023C273.089 146.577 273.815 147.034 274.589 147.432C275.383 147.851 276.235 148.171 277.135 148.395H277.145C278.084 148.648 279.42 148.842 281.162 148.988C282.962 149.124 285.189 149.202 287.831 149.202H292.507C295.149 149.202 297.385 149.114 299.176 148.988C300.938 148.842 302.273 148.657 303.222 148.395H303.261C304.229 148.152 305.08 147.831 305.855 147.432C306.61 147.053 307.326 146.596 307.955 146.052C308.468 145.585 308.923 145.041 309.301 144.428C309.678 143.806 309.978 143.087 310.211 142.27C310.453 141.385 310.666 140.054 310.801 138.352C310.937 136.544 310.995 134.308 310.995 131.605V109.809C310.995 107.194 310.937 104.987 310.791 103.188C310.656 101.448 310.453 100.097 310.201 99.1342C309.959 98.2689 309.63 97.5106 309.233 96.8495C308.875 96.237 308.401 95.7023 307.868 95.2357C307.258 94.7107 306.561 94.2538 305.806 93.8843C305.013 93.476 304.161 93.1552 303.27 92.9316V92.9413C302.302 92.6886 300.967 92.5038 299.244 92.3774C297.424 92.2511 295.188 92.1927 292.507 92.1927ZM255.269 107.709C255.269 102.585 255.811 98.1911 256.895 94.5163C258.037 90.6664 259.78 87.604 262.141 85.3583C264.484 83.1028 267.659 81.4403 271.666 80.3612C275.47 79.3307 280.049 78.8154 285.411 78.8154H295.043C306.126 78.8154 313.889 80.964 318.39 85.261C320.694 87.4971 322.436 90.5692 323.568 94.4579C324.624 98.1328 325.175 102.556 325.175 107.709V133.657C325.175 138.79 324.624 143.194 323.53 146.859V146.878C322.397 150.728 320.636 153.8 318.274 156.036C315.931 158.282 312.756 159.935 308.749 161.004C304.945 162.035 300.376 162.54 295.043 162.54H285.411C280.049 162.54 275.47 162.035 271.666 161.004C267.659 159.945 264.494 158.292 262.151 156.036C259.78 153.8 258.028 150.728 256.895 146.859C255.811 143.194 255.279 138.79 255.279 133.657V107.709H255.269ZM332.416 131.314H338.03C339.162 131.314 340.188 131.78 340.943 132.529C341.679 133.258 342.134 134.298 342.173 135.426V135.475C342.173 137.701 342.25 139.597 342.395 141.123C342.55 142.61 342.754 143.806 343.054 144.71C343.296 145.508 343.625 146.169 344.022 146.694C344.341 147.141 344.719 147.501 345.173 147.744C345.551 147.948 346.122 148.171 346.877 148.356C347.71 148.56 348.707 148.755 349.849 148.881C351.117 149.037 352.985 149.134 355.482 149.202C357.844 149.28 361.135 149.299 365.356 149.299C367.475 149.299 369.324 149.231 370.912 149.095C372.48 148.959 373.786 148.774 374.842 148.521V148.541C375.829 148.288 376.661 147.967 377.339 147.637C377.949 147.326 378.433 146.966 378.791 146.577C378.907 146.441 379.014 146.256 379.13 145.984C379.285 145.585 379.43 145.041 379.565 144.409H379.585C379.701 143.699 379.788 142.834 379.846 141.823C379.923 140.812 379.962 139.616 379.962 138.226C379.962 135.484 379.827 133.297 379.585 131.702C379.362 130.38 379.11 129.534 378.83 129.184C378.568 128.854 378.113 128.562 377.426 128.28C376.536 127.94 375.364 127.716 373.951 127.61L350.468 125.753C346.761 125.48 343.547 124.829 340.885 123.876C338.03 122.846 335.765 121.407 334.139 119.618L334.119 119.579C332.474 117.771 331.264 115.399 330.47 112.482C329.734 109.731 329.376 106.484 329.376 102.722C329.376 100.388 329.492 98.2786 329.734 96.3731C329.976 94.4093 330.344 92.6788 330.828 91.1622C331.361 89.597 332.038 88.1484 332.871 86.836H332.89C333.742 85.4944 334.739 84.2986 335.9 83.2583L335.92 83.2389C337.798 81.5764 340.353 80.4001 343.586 79.7196H343.605C345.135 79.4085 347.177 79.1849 349.713 79.0293C352.288 78.8835 355.308 78.8154 358.773 78.8154H361.493C365.385 78.8154 368.792 78.9126 371.628 79.1071C374.542 79.3112 376.845 79.6126 378.588 80.0209C380.369 80.439 382.014 81.0223 383.544 81.7612C385.073 82.5195 386.477 83.4236 387.745 84.5027C388.674 85.2999 389.487 86.2624 390.184 87.3707C390.823 88.4498 391.374 89.6651 391.791 91.0164V91.0261C392.207 92.3483 392.488 93.7774 392.681 95.3232C392.875 96.8495 392.962 98.512 392.962 100.301C392.962 100.437 392.962 100.845 392.943 101.662C392.943 102.051 392.923 102.362 392.923 102.585V102.595L392.904 102.673V102.702C392.865 103.81 392.41 104.812 391.675 105.521C390.919 106.251 389.913 106.708 388.8 106.708H383.127C381.995 106.708 380.949 106.241 380.214 105.473C379.459 104.724 379.004 103.684 379.004 102.556V102.109C379.004 100.738 378.965 99.5619 378.868 98.5897C378.81 97.6175 378.694 96.8301 378.588 96.237L378.568 96.2079C378.452 95.6634 378.307 95.2162 378.133 94.8663C378.036 94.6135 377.891 94.4288 377.775 94.2732C377.474 94.001 377.039 93.7385 376.41 93.4955C375.674 93.2038 374.725 92.9705 373.574 92.7858L373.535 92.7761C372.267 92.5816 370.418 92.4261 367.979 92.3191C365.598 92.2219 362.461 92.183 358.56 92.183C354.756 92.183 351.736 92.3872 349.471 92.7955C347.487 93.1552 346.2 93.6121 345.541 94.1663C344.951 94.7107 344.467 95.6148 344.109 96.8884C343.673 98.4147 343.47 100.398 343.47 102.828C343.47 104.821 343.625 106.474 343.886 107.787C344.128 108.905 344.457 109.702 344.854 110.217C345.212 110.674 345.803 111.053 346.616 111.364C347.622 111.753 348.919 112.025 350.565 112.152L374.503 114.164C377.891 114.456 380.814 115.088 383.253 116.05C385.867 117.071 387.938 118.49 389.497 120.299C391.026 122.078 392.178 124.382 392.923 127.24C393.62 129.933 393.959 133.112 393.959 136.738C393.959 139.295 393.862 141.541 393.698 143.485C393.523 145.546 393.262 147.257 392.904 148.677C392.546 150.096 392.033 151.448 391.394 152.711C390.774 153.936 389.99 155.074 389.09 156.104C387.958 157.359 386.67 158.428 385.199 159.293C383.747 160.149 382.14 160.819 380.34 161.306H380.32C378.617 161.763 376.235 162.093 373.235 162.326C370.282 162.531 366.749 162.637 362.587 162.637H358.802C355.269 162.637 352.201 162.55 349.616 162.375C346.974 162.171 344.835 161.879 343.247 161.481C341.563 161.063 340.053 160.499 338.669 159.789C337.439 159.167 336.288 158.399 335.242 157.524L335.184 157.504L334.787 157.154C333.674 156.163 332.667 154.986 331.816 153.635C331.002 152.303 330.325 150.864 329.812 149.27C329.318 147.744 328.96 145.984 328.699 144.01C328.457 142.066 328.321 139.966 328.321 137.759V135.465C328.321 134.327 328.796 133.277 329.551 132.519C330.257 131.78 331.283 131.314 332.416 131.314Z" fill="white"/>
  </g>
  <defs>
  <clipPath id="clip0">
  <rect width="557" height="237" fill="white"/>
  </clipPath>
  </defs>
</svg>
